<svg width="37" height="37" viewBox="0 0 37 37" fill="none" xmlns="http://www.w3.org/2000/svg">
<circle cx="18.5" cy="18.5" r="18.5" fill="#C4C4C4"/>
<path d="M26.5934 29.7492H15.7153C14.4661 29.7492 13.449 28.7298 13.449 27.4757V13.8346C13.449 12.5805 14.4661 11.561 15.7153 11.561H26.5934C27.8425 11.561 28.8596 12.5805 28.8596 13.8346V27.4757C28.8596 28.7298 27.8425 29.7492 26.5934 29.7492ZM15.7153 12.4704C14.9656 12.4704 14.3555 13.0825 14.3555 13.8346V27.4757C14.3555 28.2278 14.9656 28.8398 15.7153 28.8398H26.5934C27.3431 28.8398 27.9531 28.2278 27.9531 27.4757V13.8346C27.9531 13.0825 27.3431 12.4704 26.5934 12.4704H15.7153Z" fill="white"/>
<path d="M12.0714 27.0614H11.1596C9.90314 27.0614 8.88013 26.0379 8.88013 24.7789V10.1703C8.88013 8.91121 9.90314 7.8877 11.1596 7.8877H22.1009C23.3574 7.8877 24.3804 8.91121 24.3804 10.1703C24.3804 10.4223 24.1762 10.6268 23.9245 10.6268C23.6729 10.6268 23.4686 10.4223 23.4686 10.1703C23.4686 9.4152 22.855 8.80073 22.1009 8.80073H11.1596C10.4055 8.80073 9.79191 9.4152 9.79191 10.1703V24.7789C9.79191 25.5339 10.4055 26.1484 11.1596 26.1484H12.0714C12.323 26.1484 12.5272 26.3529 12.5272 26.6049C12.5272 26.8569 12.323 27.0614 12.0714 27.0614Z" fill="white"/>
<path d="M24.8182 23.3879H17.4911C17.2384 23.3879 17.0332 23.1872 17.0332 22.9399C17.0332 22.6926 17.2384 22.4919 17.4911 22.4919H24.8182C25.071 22.4919 25.2761 22.6926 25.2761 22.9399C25.2761 23.1872 25.071 23.3879 24.8182 23.3879Z" fill="white"/>
<path d="M24.8182 27.0615H17.4911C17.2384 27.0615 17.0332 26.8407 17.0332 26.5687C17.0332 26.2967 17.2384 26.0759 17.4911 26.0759H24.8182C25.071 26.0759 25.2761 26.2967 25.2761 26.5687C25.2761 26.8407 25.071 27.0615 24.8182 27.0615Z" fill="white"/>
<path d="M24.8182 19.7146H17.4911C17.2384 19.7146 17.0332 19.5139 17.0332 19.2666C17.0332 19.0193 17.2384 18.8186 17.4911 18.8186H24.8182C25.071 18.8186 25.2761 19.0193 25.2761 19.2666C25.2761 19.5139 25.071 19.7146 24.8182 19.7146Z" fill="white"/>
<path d="M24.8182 16.041H17.4911C17.2384 16.041 17.0332 15.8403 17.0332 15.593C17.0332 15.3457 17.2384 15.145 17.4911 15.145H24.8182C25.071 15.145 25.2761 15.3457 25.2761 15.593C25.2761 15.8403 25.071 16.041 24.8182 16.041Z" fill="white"/>
</svg>
