<svg width="150" height="48" viewBox="0 0 150 48" fill="none" xmlns="http://www.w3.org/2000/svg">
<path d="M18.304 18H26.392V0.144H4.624C4.624 9.288 4.384 10.752 3.784 11.544C3.328 12.096 2.776 12.216 1.696 12.216H1.336V18H4.24C7.96 18 9.664 17.184 10.744 15.36C11.776 13.608 12.064 10.608 12.064 5.28H18.304V18ZM27.97 18H35.746L41.626 10.992V18H49.378V5.088H41.578L35.722 12.096V5.088H27.97V18ZM50.1981 21.216H57.1341V18H67.8861V21.216H74.8221V13.656H72.3501V5.088H53.1981C53.1981 10.464 52.6941 12.48 52.0461 13.656H50.1981V21.216ZM59.1741 13.656C59.6301 12.576 59.7981 11.04 59.8701 9.312H64.7661V13.656H59.1741ZM96.8104 13.176H89.1784C89.1064 13.464 88.8184 14.592 86.1304 14.592C83.8024 14.592 83.0344 13.488 82.9144 12.36H96.8344V11.856C96.8344 8.808 95.9464 4.728 86.5624 4.728H85.4104C76.3624 4.728 75.2824 8.592 75.2824 11.256V11.64C75.2824 14.328 76.3864 18.36 85.4344 18.36H86.5864C95.7784 18.36 96.8104 15.048 96.8104 13.2V13.176ZM82.9624 9.744C83.1544 8.808 83.8264 8.088 86.0584 8.088C88.1944 8.088 88.9624 8.784 89.1304 9.744H82.9624ZM105.567 11.496C105.567 10.152 106.407 8.736 108.783 8.736H108.903C111.183 8.736 111.807 10.224 111.807 11.52V11.616C111.807 12.792 111.183 14.352 108.903 14.352H108.783C106.479 14.352 105.567 12.816 105.567 11.592V11.496ZM97.8154 5.088V22.512H105.567V16.68C105.999 16.992 107.967 18.168 111.399 18.168H111.951C118.023 18.168 119.679 14.664 119.679 11.616V11.04C119.679 8.16 118.215 4.92 112.191 4.92H111.591C107.991 4.92 106.023 6.432 105.567 6.84V5.088H97.8154ZM120.642 18H133.602C139.266 18 141.162 15.744 141.162 13.2V12.792C141.162 10.224 139.29 8.184 133.602 8.184H128.394V5.088H120.642V18ZM128.394 14.376V11.808H131.634C132.882 11.808 133.29 12.408 133.29 13.056V13.104C133.29 13.752 132.882 14.376 131.658 14.376H128.394ZM149.85 5.088H142.098V18H149.85V5.088ZM17.176 39.608H12.136L14.632 34.112L17.176 39.608ZM20.584 47H29.56L20.416 29.144H9.232L0.64 47H8.824L9.928 44.528H19.456L20.584 47ZM42.1593 47H49.9113V34.088H31.5033C31.5033 39.464 31.3353 40.616 31.0233 41.36C30.8073 42.008 30.2793 42.32 29.4633 42.32H29.1753V47H32.5113C35.0073 47 36.4473 46.544 37.3833 45.008C38.1513 43.808 38.3193 42.344 38.4393 38.432H42.1593V47ZM56.4648 47H64.2168V38.432H69.3528V34.088H51.3048V38.432H56.4648V47ZM82.1753 41.672C82.1753 42.824 81.0713 43.904 79.1753 43.904C77.8553 43.904 77.4713 43.28 77.4713 42.728V42.704C77.4713 42.128 77.8793 41.888 78.7193 41.696L82.1753 40.952V41.672ZM82.2713 45.32C82.4393 46.352 83.1593 47 84.4073 47H91.0073V42.968H90.2633C89.9753 42.968 89.8313 42.8 89.8313 42.488V37.928C89.8313 36.296 89.2793 33.752 80.5433 33.752H79.1753C70.8473 33.752 70.2953 36.272 70.2953 38.072V38.288H77.4953C77.5433 37.928 77.6153 37.112 79.8713 37.112H79.9433C81.8633 37.112 82.1993 37.568 82.1993 38V38.024C82.1993 38.312 82.0553 38.504 81.5513 38.576L74.9993 39.128C71.1833 39.44 69.9833 40.832 69.9833 42.752V43.16C69.9833 45.2 71.6153 47.24 75.9353 47.24H76.1273C79.8233 47.24 81.6473 45.944 82.2713 45.32ZM104.444 43.64V47H112.196V34.088H99.1399C93.4999 34.088 91.5559 36.2 91.5559 38.816V39.056C91.5559 40.808 92.6119 42.32 95.1799 42.992L90.9799 47H99.3079L102.764 43.64H104.444ZM104.444 37.856V40.184H101.06C99.7399 40.184 99.4039 39.656 99.4039 39.056V39.008C99.4039 38.432 99.7399 37.856 101.06 37.856H104.444Z" fill="#2DBECD"/>
</svg>
